<svg xmlns="http://www.w3.org/2000/svg" xmlns:xlink="http://www.w3.org/1999/xlink" viewBox="0,0,256,256" width="150px" height="150px"><g fill="#b45137" fill-rule="nonzero" stroke="none" stroke-width="1" stroke-linecap="butt" stroke-linejoin="miter" stroke-miterlimit="10" stroke-dasharray="" stroke-dashoffset="0" font-family="none" font-weight="none" font-size="none" text-anchor="none" style="mix-blend-mode: normal"><g transform="scale(5.12,5.12)"><path d="M13.99805,4c-5.51223,0 -10,4.4888 -10,10v22.00195c0,5.51209 4.48791,10 10,10h22.00195c5.5112,0 10,-4.48777 10,-10v-22.00195c0,-5.51058 -4.48942,-10 -10,-10zM13.99805,6h22.00195c4.42942,0 8,3.57058 8,8v22.00195c0,4.43178 -3.5692,8 -8,8h-22.00195c-4.43191,0 -8,-3.56809 -8,-8v-22.00195c0,-4.4308 3.56823,-8 8,-8zM25.99805,11.00195v25h3.00195v-3.47656c1.312,-0.959 2.72219,-2.07708 3.86719,-3.08008l2.61328,4.37109c0.652,1.11 1.96222,2.16406 3.19922,2.16406c0.622,0 1.19752,-0.14366 1.72852,-0.34766l-5.12109,-8.54492c2.314,-2.662 4.04125,-5.58412 5.28125,-8.70312l-3.01367,-1.14062c-1.731,4.412 -4.65164,8.40066 -8.55664,11.34766v-17.58984zM16.99805,18.00195c-4.305,0 -8,3.361 -8,9c0,4.571 1.957,9 8,9c2.747,0 4.221,-0.44709 6,-1.37109v-3.11133c-1.852,0.891 -3.29817,1.48242 -5.32617,1.48242c-2,0 -4.67383,-1.709 -4.67383,-6c0,-3.632 1.56128,-6 4.73828,-6c2.099,0 3.2088,0.39183 4.5918,1.04883c0.511,-0.825 0.7282,-1.85283 0.2832,-2.54883c-0.696,-1.084 -2.98628,-1.5 -5.61328,-1.5z"></path></g></g></svg>