<svg xmlns="http://www.w3.org/2000/svg"  viewBox="0 0 50 50" width="150px" height="150px"><path d="M 13.998047 4 C 8.4858215 4 3.9980469 8.4888002 3.9980469 14 L 3.9980469 36.001953 C 3.9980469 41.514044 8.4859556 46.001953 13.998047 46.001953 L 36 46.001953 C 41.5112 46.001953 46 41.514178 46 36.001953 L 46 14 C 46 8.4894232 41.510577 4 36 4 L 13.998047 4 z M 13.998047 6 L 36 6 C 40.429423 6 44 9.5705768 44 14 L 44 36.001953 C 44 40.433728 40.4308 44.001953 36 44.001953 L 13.998047 44.001953 C 9.566138 44.001953 5.9980469 40.433862 5.9980469 36.001953 L 5.9980469 14 C 5.9980469 9.5691998 9.566272 6 13.998047 6 z M 25.998047 11.001953 L 25.998047 36.001953 L 29 36.001953 L 29 32.525391 C 30.312 31.566391 31.722188 30.448313 32.867188 29.445312 L 35.480469 33.816406 C 36.132469 34.926406 37.442687 35.980469 38.679688 35.980469 C 39.301687 35.980469 39.877203 35.836813 40.408203 35.632812 L 35.287109 27.087891 C 37.601109 24.425891 39.328359 21.503766 40.568359 18.384766 L 37.554688 17.244141 C 35.823687 21.656141 32.903047 25.644797 28.998047 28.591797 L 28.998047 11.001953 L 25.998047 11.001953 z M 16.998047 18.001953 C 12.693047 18.001953 8.9980469 21.362953 8.9980469 27.001953 C 8.9980469 31.572953 10.955047 36.001953 16.998047 36.001953 C 19.745047 36.001953 21.219047 35.554859 22.998047 34.630859 L 22.998047 31.519531 C 21.146047 32.410531 19.699875 33.001953 17.671875 33.001953 C 15.671875 33.001953 12.998047 31.292953 12.998047 27.001953 C 12.998047 23.369953 14.559328 21.001953 17.736328 21.001953 C 19.835328 21.001953 20.945125 21.393781 22.328125 22.050781 C 22.839125 21.225781 23.056328 20.197953 22.611328 19.501953 C 21.915328 18.417953 19.625047 18.001953 16.998047 18.001953 z"/></svg>